<svg width="240" height="74" viewBox="0 0 240 74" fill="none" xmlns="http://www.w3.org/2000/svg">
<g clip-path="url(#clip0)">
<path d="M239.592 29.2259C239.783 28.7787 240 27.8077 240 27.137C240.006 24.8244 238.139 23.0038 235.761 23.0038C233.792 23.0038 232.313 24.1664 231.485 26.3768L239.592 29.2259ZM239.592 29.2259L229.528 53.45L239.592 29.2259ZM96.6559 26.7662V28.7842L97.9739 27.256C99.4129 25.5874 100.761 24.6694 101.991 24.1616C103.223 23.6534 104.384 23.5364 105.488 23.5364C108.502 23.5364 110.827 24.514 112.406 26.2379C113.993 27.9705 114.907 30.5462 114.91 33.8897V48.8375C114.91 50.8908 113.243 52.5592 111.199 52.5592C109.154 52.5592 107.487 50.8907 107.487 48.8375V36.4827C107.487 34.584 107.073 33.0065 106.148 31.8933C105.203 30.7561 103.822 30.2197 102.154 30.2197C100.454 30.2197 99.0383 30.7703 98.0619 31.9051C97.1009 33.022 96.6559 34.6 96.6559 36.4827V48.8375C96.6559 50.8907 94.9888 52.5592 92.9443 52.5592C90.8998 52.5592 89.2327 50.8907 89.2327 48.8375V17.0051C89.2327 14.9518 90.8998 13.2833 92.9443 13.2833C94.9888 13.2833 96.6559 14.9518 96.6559 17.0051V26.7662ZM122.036 25.2392L122.037 25.239C124.761 24.2159 127.55 23.7537 131.111 23.7537C135.418 23.7537 138.56 24.8482 140.588 26.8752L140.588 26.8752C142.549 28.8353 143.599 31.8085 143.599 35.8312V49.0101C143.599 51.0028 142.031 52.5657 139.996 52.5657C138.011 52.5657 136.811 51.3677 136.519 50.1395L136.212 48.8521L135.265 49.7767C133.212 51.782 130.635 52.7766 127.344 52.7766C124.421 52.7766 122.042 51.8966 120.403 50.4266C118.772 48.963 117.819 46.8666 117.819 44.3084V44.1998C117.819 41.3449 118.832 39.175 120.677 37.7002C122.545 36.2062 125.356 35.3547 129.065 35.3547C131.896 35.3547 133.913 35.8353 135.518 36.359L136.507 36.6816L136.501 35.6417C136.494 34.4234 136.214 32.9878 135.186 31.8544C134.144 30.7066 132.458 30.0026 129.925 30.0026C127.84 30.0026 125.953 30.2667 124.156 30.8289L124.149 30.8311L124.142 30.8334C123.708 30.9786 123.425 31.0247 123.086 31.0247C121.382 31.0247 120.076 29.7222 120.076 28.0632C120.076 26.8172 120.863 25.6789 122.036 25.2392ZM136.609 41.2037V40.7105L136.156 40.5151C134.632 39.8574 132.815 39.5019 131.003 39.5019C129.242 39.5019 127.751 39.8442 126.678 40.5794C125.567 41.3398 124.969 42.4795 124.969 43.874V43.9826C124.969 45.1756 125.463 46.1832 126.363 46.8723C127.241 47.5443 128.444 47.8692 129.817 47.8692C131.725 47.8692 133.408 47.3502 134.632 46.3985C135.868 45.4372 136.609 44.0505 136.609 42.4238V41.2037ZM155.563 26.9482L155.798 28.6059L156.879 27.3276C159.045 24.7656 161.68 23.5367 164.974 23.5367C171.262 23.5367 177.724 28.4486 177.724 38.0993V38.2079C177.724 42.6853 176.353 46.4083 173.828 49.0405L173.827 49.0409C171.518 51.4518 168.382 52.7768 164.974 52.7768C161.707 52.7768 159.145 51.6736 156.896 49.2938L155.601 47.923V49.8089V57.4747C155.601 59.5278 153.933 61.1964 151.889 61.1964C149.845 61.1964 148.177 59.5278 148.177 57.4747V27.4757C148.177 25.4225 149.845 23.7539 151.889 23.7539C153.758 23.7539 155.309 25.1455 155.563 26.9482ZM188.668 26.9482L188.903 28.6054L189.984 27.3277C192.151 24.7656 194.785 23.5367 198.08 23.5367C204.367 23.5367 210.829 28.4486 210.829 38.0993V38.2079C210.829 42.6853 209.458 46.4084 206.934 49.0406L206.933 49.0409C204.624 51.4517 201.487 52.7768 198.08 52.7768C194.812 52.7768 192.249 51.6736 190.001 49.2938L188.706 47.923V49.8089V57.4747C188.706 59.5279 187.039 61.1964 184.994 61.1964C182.95 61.1964 181.283 59.528 181.283 57.4747V27.4757C181.283 25.4223 182.95 23.7539 184.994 23.7539C186.863 23.7539 188.414 25.1455 188.668 26.9482ZM232.189 26.6355C232.567 25.6269 233.074 24.9119 233.659 24.4505C234.238 23.9945 234.934 23.7538 235.761 23.7538C237.744 23.7538 239.255 25.257 239.25 27.1351V27.137C239.25 27.7068 239.053 28.5776 238.902 28.9313L238.899 28.9382L228.835 53.1623L228.835 53.1642C227.586 56.1944 226.351 58.1376 224.903 59.3323C223.483 60.5037 221.781 61.0174 219.445 61.0174C217.794 61.0174 216.548 60.8012 215.104 60.2827C214.146 59.9332 212.776 59.1204 212.776 57.2446C212.776 55.3765 214.225 54.283 215.62 54.283C216.216 54.283 216.554 54.3825 216.838 54.4794L216.847 54.4825L216.856 54.4853C217.574 54.7094 218.042 54.826 218.686 54.826C219.37 54.826 220.014 54.7772 220.585 54.4619C221.17 54.1392 221.564 53.604 221.926 52.9083L221.941 52.8809L221.952 52.8525L222.156 52.367L222.28 52.0729L222.154 51.7799L212.368 29.0546C212.162 28.5321 211.966 27.7712 211.966 27.303C211.966 25.2799 213.507 23.7474 215.62 23.7474C216.518 23.7474 217.217 23.9795 217.775 24.4124C218.34 24.8517 218.822 25.5459 219.191 26.5728L219.194 26.5802L225.09 42.4676L225.804 44.3923L226.499 42.4605L232.187 26.6399C232.188 26.6384 232.188 26.637 232.189 26.6355ZM170.307 38.0993C170.307 33.4424 167.186 29.7345 162.871 29.7345C158.526 29.7345 155.492 33.3713 155.492 38.0993V38.2079C155.492 42.9353 158.52 46.5726 162.871 46.5726C167.249 46.5726 170.307 42.9418 170.307 38.2079V38.0993ZM203.412 38.0993C203.412 33.4424 200.291 29.7345 195.976 29.7345C191.631 29.7345 188.598 33.3715 188.598 38.0993V38.2079C188.598 42.9351 191.624 46.5726 195.976 46.5726C200.355 46.5726 203.412 42.9417 203.412 38.2079V38.0993Z" fill="white" stroke="url(#paint0_linear)" stroke-width="1.5"/>
<path d="M63.9739 18.7786V44.9078C63.9739 55.2784 55.5339 63.6863 45.1237 63.6863H43.217L33.4805 73.3795C33.0992 73.7594 32.5717 74 31.987 74C31.4467 74 30.9574 73.8037 30.5824 73.4745L30.4172 73.3099L30.4108 73.3036L20.7569 63.6863H18.8439C8.44003 63.6863 0 55.2784 0 44.9078V18.7786C0 8.40794 8.44003 0 18.8503 0H45.1237C55.5339 0 63.9739 8.40794 63.9739 18.7786Z" fill="url(#paint1_linear)"/>
<path d="M14.895 36.197C13.0392 36.197 11.9814 38.3036 13.0582 39.8248C17.2449 45.7501 24.1677 49.6133 31.99 49.6133C39.8123 49.6133 46.7289 45.7437 50.9155 39.8248C51.9923 38.3036 50.9345 36.197 49.0787 36.197H14.895Z" fill="white"/>
<path d="M25.764 27.2298H14.5658V21.6036C14.5658 18.4977 17.074 15.9774 20.1649 15.9774C23.2558 15.9774 25.764 18.4977 25.764 21.6036V27.2298Z" fill="white"/>
<path d="M49.4148 27.2298H38.2166V21.6036C38.2166 18.4977 40.7248 15.9774 43.8157 15.9774C46.9066 15.9774 49.4148 18.4977 49.4148 21.6036V27.2298Z" fill="white"/>
</g>
<defs>
<linearGradient id="paint0_linear" x1="-2.6664e-06" y1="37" x2="240" y2="37" gradientUnits="userSpaceOnUse">
<stop stop-color="#FFD666"/>
<stop offset="0.52061" stop-color="#00C7C7"/>
<stop offset="1" stop-color="#29B6D1"/>
</linearGradient>
<linearGradient id="paint1_linear" x1="-2.38321e-07" y1="37" x2="241" y2="37" gradientUnits="userSpaceOnUse">
<stop stop-color="#FFD666"/>
<stop offset="0.53125" stop-color="#00C7C7"/>
<stop offset="1" stop-color="#29B6D1"/>
</linearGradient>
<clipPath id="clip0">
<rect width="240" height="74" fill="white"/>
</clipPath>
</defs>
</svg>
