<svg width="240" height="74" viewBox="0 0 240 74" fill="none" xmlns="http://www.w3.org/2000/svg">
<path d="M225.796 26.3959L225.8 26.3836C226.247 25.1646 226.897 24.1587 227.771 23.4546C228.656 22.7412 229.717 22.383 230.887 22.383C233.742 22.383 236.007 24.632 236 27.4841M225.796 26.3959L235 27.4816M225.796 26.3959L221.202 39.4543L216.44 26.3392C216.439 26.3376 216.439 26.3359 216.438 26.3342M225.796 26.3959L216.438 26.3342M236 27.4841L235 27.4816M236 27.4841C236 27.4833 236 27.4825 236 27.4816H235M236 27.4841C235.999 28.2784 235.765 29.367 235.529 29.9341L235.531 29.9296L234.604 29.553M235 27.4816C235 28.1467 234.789 29.1096 234.604 29.553M234.604 29.553L235.527 29.9386M234.604 29.553L235.527 29.9386M235.527 29.9386L225.768 53.9486C225.768 53.9489 225.767 53.9492 225.767 53.9495C224.52 57.0434 223.191 59.287 221.461 60.7459C219.691 62.2387 217.608 62.8225 215.058 62.8225C213.263 62.8225 211.854 62.5753 210.254 61.9885L210.25 61.9868C209.093 61.5559 206.86 60.3175 206.86 57.3375C206.86 54.4421 209.12 52.6569 211.347 52.6569C212.161 52.6569 212.681 52.8047 213.079 52.9425C213.715 53.1452 213.967 53.1954 214.321 53.1954C214.95 53.1954 215.182 53.1342 215.321 53.056C215.442 52.9877 215.624 52.8292 215.911 52.2751L215.934 52.2173L207.516 32.2336C208.1 34.0433 208.426 36.0859 208.426 38.3523V38.46C208.426 43.2519 206.985 47.4046 204.174 50.401C201.603 53.1445 198.103 54.6508 194.33 54.6508C191.487 54.6508 189.074 53.865 186.963 52.2388V57.5657C186.963 60.5403 184.596 63 181.634 63C178.672 63 176.306 60.5401 176.306 57.5657V38.7963C176.24 43.4459 174.801 47.4745 172.055 50.4007C169.484 53.1444 165.985 54.6508 162.211 54.6508C159.369 54.6508 156.956 53.865 154.845 52.2388V57.5657C154.845 60.5404 152.477 63 149.516 63C146.555 63 144.187 60.5404 144.187 57.5657V27.8175C144.187 24.8427 146.555 22.3831 149.516 22.3831C151.569 22.3831 153.334 23.5641 154.225 25.2755C156.43 23.2013 159.078 22.1677 162.211 22.1677C169.233 22.1677 176.159 27.742 176.306 38.0183V27.8175C176.306 24.843 178.672 22.3831 181.634 22.3831C183.687 22.3831 185.452 23.5642 186.343 25.2757C188.548 23.2014 191.196 22.1677 194.33 22.1677C199.147 22.1677 203.92 24.792 206.489 29.7588C206.28 29.1515 206.074 28.3187 206.074 27.6462C206.074 24.6611 208.359 22.3766 211.347 22.3766C212.542 22.3766 213.613 22.7013 214.505 23.4088C215.383 24.1053 216.007 25.1093 216.438 26.3342M235.527 29.9386L216.438 26.3342M97.6572 24.6749V17.4344C97.6572 14.4598 95.2905 12 92.3286 12C89.3667 12 87 14.4598 87 17.4344V49.0007C87 51.9753 89.3667 54.435 92.3286 54.435C95.2904 54.435 97.6572 51.9753 97.6572 49.0007V36.7492C97.6572 35.1259 98.035 34.0222 98.6102 33.3389C99.1623 32.683 100.008 32.2823 101.264 32.2823C102.49 32.2823 103.286 32.6684 103.803 33.3044C104.35 33.9763 104.71 35.0808 104.71 36.7492V49.0007C104.71 51.9753 107.077 54.435 110.039 54.435C113.001 54.435 115.367 51.9751 115.367 49.0007V48.2138C115.886 49.6273 116.713 50.8636 117.807 51.8672C119.77 53.6667 122.518 54.6506 125.703 54.6506C128.767 54.6506 131.368 53.8284 133.528 52.1272C134.38 53.4671 135.942 54.4415 137.977 54.4415C140.908 54.4415 143.201 52.1084 143.201 49.1718V36.1031C143.201 31.8332 142.109 28.3743 139.781 25.9964C137.376 23.5405 133.809 22.3829 129.357 22.3829C125.735 22.3829 122.815 22.8662 119.94 23.9694C118.121 24.6661 116.924 26.4506 116.924 28.4001C116.924 31.0092 118.965 33.0805 121.572 33.0805C122.119 33.0805 122.578 32.9933 123.141 32.8021C124.691 32.3075 126.34 32.067 128.207 32.067C130.343 32.067 131.44 32.6652 132.024 33.3233C132.33 33.6682 132.539 34.0775 132.671 34.5257C131.243 34.16 129.524 33.8869 127.372 33.8869C123.534 33.8869 120.37 34.7846 118.147 36.6014C116.859 37.6539 115.928 38.9816 115.367 40.5385V34.1773V34.1764C115.364 30.5601 114.395 27.5441 112.492 25.4204C110.576 23.2823 107.82 22.1674 104.498 22.1674C103.296 22.1674 101.92 22.2978 100.439 22.9222C99.5258 23.3076 98.5971 23.8706 97.6572 24.6749ZM216.341 52.4975L216.82 52.6941L216.392 52.4762L217.018 52.2126L216.341 52.4975ZM128.102 46.2968C127.023 46.2968 126.27 46.034 125.81 45.6738C125.377 45.3352 125.126 44.8544 125.126 44.1864V44.0787C125.126 43.2477 125.445 42.6616 126.041 42.2444C126.684 41.794 127.735 41.4869 129.253 41.4869C130.556 41.4869 131.847 41.7095 132.964 42.1084V42.6406C132.964 43.6886 132.513 44.5701 131.705 45.2121C130.882 45.8663 129.649 46.2968 128.102 46.2968ZM160.171 31.8011C163.179 31.8011 165.657 34.4549 165.657 38.3523V38.46C165.657 42.4328 163.241 45.011 160.171 45.011C157.139 45.011 154.739 42.4415 154.739 38.46V38.3523C154.739 34.3712 157.144 31.8011 160.171 31.8011ZM192.289 31.8011C195.297 31.8011 197.775 34.4549 197.775 38.3523V38.46C197.775 42.4329 195.359 45.011 192.289 45.011C189.257 45.011 186.858 42.4417 186.858 38.46V38.3523C186.858 34.371 189.262 31.8011 192.289 31.8011Z" fill="white" stroke="url(#paint0_linear)" stroke-width="2"/>
<path d="M63.9739 18.7786V44.9078C63.9739 55.2784 55.5339 63.6863 45.1237 63.6863H43.217L33.4805 73.3795C33.0992 73.7594 32.5717 74 31.987 74C31.4467 74 30.9574 73.8037 30.5824 73.4745L30.4172 73.3099L30.4108 73.3036L20.7569 63.6863H18.8439C8.44003 63.6863 0 55.2784 0 44.9078V18.7786C0 8.40794 8.44003 0 18.8503 0H45.1237C55.5339 0 63.9739 8.40794 63.9739 18.7786Z" fill="url(#paint1_linear)"/>
<path d="M14.895 36.197C13.0392 36.197 11.9814 38.3036 13.0582 39.8248C17.2449 45.7501 24.1677 49.6133 31.99 49.6133C39.8123 49.6133 46.7289 45.7437 50.9155 39.8248C51.9923 38.3036 50.9345 36.197 49.0787 36.197H14.895Z" fill="white"/>
<path d="M25.764 27.2298H14.5658V21.6036C14.5658 18.4977 17.074 15.9774 20.1649 15.9774C23.2558 15.9774 25.764 18.4977 25.764 21.6036V27.2298Z" fill="white"/>
<path d="M49.4148 27.2298H38.2166V21.6036C38.2166 18.4977 40.7248 15.9774 43.8157 15.9774C46.9066 15.9774 49.4148 18.4977 49.4148 21.6036V27.2298Z" fill="white"/>
<defs>
<linearGradient id="paint0_linear" x1="2.15531" y1="37.2621" x2="235" y2="37.2621" gradientUnits="userSpaceOnUse">
<stop stop-color="#FFD666"/>
<stop offset="0.52061" stop-color="#00C7C7"/>
<stop offset="1" stop-color="#29B6D1"/>
</linearGradient>
<linearGradient id="paint1_linear" x1="-2.38321e-07" y1="37" x2="241" y2="37" gradientUnits="userSpaceOnUse">
<stop stop-color="#FFD666"/>
<stop offset="0.53125" stop-color="#00C7C7"/>
<stop offset="1" stop-color="#29B6D1"/>
</linearGradient>
</defs>
</svg>
